<svg xmlns="http://www.w3.org/2000/svg" xmlns:xlink="http://www.w3.org/1999/xlink" viewBox="0 0 187.92 144.71"><defs><style>.cls-1{fill:url(#linear-gradient);}.cls-2{fill:url(#linear-gradient-2);}.cls-3{fill:url(#linear-gradient-3);}</style><linearGradient id="linear-gradient" x1="19.15" y1="684.61" x2="19.15" y2="482.97" gradientTransform="matrix(1, 0, 0, -1, 0, 631.93)" gradientUnits="userSpaceOnUse"><stop offset="0" stop-color="#71b5b6"/><stop offset="0.59" stop-color="#2e97a0"/><stop offset="1" stop-color="#067d86"/></linearGradient><linearGradient id="linear-gradient-2" x1="129.1" y1="684.61" x2="129.1" y2="482.97" xlink:href="#linear-gradient"/><linearGradient id="linear-gradient-3" x1="169.74" y1="684.61" x2="169.74" y2="482.97" xlink:href="#linear-gradient"/></defs><title>logo_1</title><g id="Layer_2" data-name="Layer 2"><g id="Layer_1-2" data-name="Layer 1"><path class="cls-1" d="M0,0H38.29V144.71H0Z"/><path class="cls-2" d="M187.8,104.75c-26.34-11.61-38.56-26.13-44.86-37.22-4.5-7.92-5.73-13.17-12.17-28.13l-.22-.52A64.68,64.68,0,0,0,71.14,0h-.79V144.71h36.51V102.85q-.28-18-.56-35.94a121.53,121.53,0,0,0,25,42.68,123.11,123.11,0,0,0,56.56,35.12Q187.86,124.73,187.8,104.75Z"/><circle class="cls-3" cx="169.74" cy="18.25" r="18.18"/></g></g></svg>