<svg xmlns="http://www.w3.org/2000/svg" xmlns:xlink="http://www.w3.org/1999/xlink" viewBox="0 0 823.84 150.05"><defs><style>.cls-1{fill:#fff;}.cls-2{fill:url(#linear-gradient);}.cls-3{fill:url(#linear-gradient-2);}.cls-4{fill:url(#linear-gradient-3);}</style><linearGradient id="linear-gradient" x1="19.15" y1="-50.82" x2="19.15" y2="150.82" gradientUnits="userSpaceOnUse"><stop offset="0" stop-color="#71b5b6"/><stop offset="0.59" stop-color="#2e97a0"/><stop offset="1" stop-color="#067d86"/></linearGradient><linearGradient id="linear-gradient-2" x1="129.12" y1="-50.82" x2="129.12" y2="150.82" xlink:href="#linear-gradient"/><linearGradient id="linear-gradient-3" x1="169.74" y1="-50.82" x2="169.74" y2="150.82" xlink:href="#linear-gradient"/></defs><title>Asset 1</title><g id="Layer_2" data-name="Layer 2"><g id="Layer_1-2" data-name="Layer 1"><path class="cls-1" d="M218.74,2.67h53c31.61,0,58.77,11.58,58.77,48.09,0,35.4-27.61,50.76-57.88,50.76H257v45.86H218.74Zm52.1,68.57c15.14,0,22.26-7.57,22.26-20.48S284.64,33,270,33H257V71.24Z"/><path class="cls-1" d="M354.1,2.67h38.29V115.32h54.76v32.06h-93Z"/><path class="cls-1" d="M495.69,2.67H542l44.08,144.71H545.56L529.08,77c-3.56-13.8-7.12-31.39-10.69-45.86h-.89c-3.11,14.69-6.67,32.06-10.24,45.86l-16.47,70.35H451.61ZM483.22,87.05H554v29.61h-70.8Z"/><path class="cls-1" d="M591.42,76.14C591.42,27.61,624.81,0,661.32,0c19.15,0,34.73,8.9,45,19.15l-20,24.48C679.13,37.4,672,33,662.21,33,645.29,33,630.6,48.53,630.6,74.8c0,27.16,12.47,42.3,31.17,42.3,11.13,0,20-5.79,26.27-12.47l20,24.05c-12.24,14.25-28.94,21.37-47.64,21.37C623.47,150.05,591.42,125.56,591.42,76.14Z"/><path class="cls-1" d="M728.11,2.67h93.5V34.73H766.4V57.44h47.2V89.5H766.4v25.82h57.44v32.06H728.11Z"/><path class="cls-2" d="M0,1.86H38.29V146.57H0Z"/><path class="cls-3" d="M187.8,106.61C161.46,95,149.24,80.48,142.94,69.39c-4.5-7.92-5.73-13.17-12.17-28.13l-.22-.52A64.68,64.68,0,0,0,71.14,1.86h-.79V146.57h36.51V104.71q-.28-18-.56-35.94a121.56,121.56,0,0,0,25,42.68,123.1,123.1,0,0,0,56.56,35.12Q187.86,126.59,187.8,106.61Z"/><circle class="cls-4" cx="169.74" cy="20.11" r="18.18"/></g></g></svg>